<?xml version="1.0" encoding="UTF-8"?>
<svg xmlns="http://www.w3.org/2000/svg" xmlns:xlink="http://www.w3.org/1999/xlink" width="40px" height="40px" viewBox="0 0 40 40" version="1.1">
<g id="surface1">
<path style=" stroke:none;fill-rule:nonzero;fill:rgb(0%,0%,0%);fill-opacity:1;" d="M 1.464844 1.535156 C 1.226562 1.828125 1.265625 2.558594 1.546875 2.761719 C 1.71875 2.894531 2.535156 2.933594 4.691406 2.933594 C 6.292969 2.933594 7.601562 2.960938 7.601562 3 C 7.601562 3.414062 10.441406 25.785156 10.535156 26.148438 C 10.71875 26.8125 11.148438 27.320312 11.785156 27.613281 C 12.308594 27.839844 12.867188 27.867188 21.601562 27.867188 C 27.28125 27.867188 31.054688 27.8125 31.332031 27.734375 C 32.425781 27.441406 32.441406 27.386719 35.746094 18.308594 C 37.625 13.121094 38.761719 9.828125 38.71875 9.667969 C 38.535156 9.054688 39.011719 9.066406 24.132812 9.066406 L 10.054688 9.066406 L 9.613281 5.425781 C 9.292969 2.851562 9.105469 1.734375 8.960938 1.558594 C 8.773438 1.359375 8.425781 1.332031 5.199219 1.332031 C 2.160156 1.332031 1.613281 1.359375 1.464844 1.535156 Z M 36.667969 10.707031 C 36.667969 10.867188 31.160156 25.828125 31.054688 25.960938 C 30.933594 26.105469 29.171875 26.132812 21.734375 26.132812 C 13.105469 26.132812 12.558594 26.121094 12.359375 25.894531 C 12.1875 25.707031 11.933594 24.011719 11.265625 18.667969 C 10.785156 14.8125 10.359375 11.441406 10.320312 11.160156 L 10.238281 10.667969 L 23.453125 10.667969 C 30.71875 10.667969 36.667969 10.679688 36.667969 10.707031 Z M 36.667969 10.707031 "/>
<path style=" stroke:none;fill-rule:nonzero;fill:rgb(0%,0%,0%);fill-opacity:1;" d="M 12.066406 30.921875 C 11.28125 31.121094 10.652344 31.507812 10.078125 32.160156 C 8.292969 34.132812 8.960938 37.308594 11.386719 38.414062 C 12.148438 38.761719 13.851562 38.761719 14.613281 38.414062 C 16.453125 37.574219 17.386719 35.414062 16.734375 33.480469 C 16.453125 32.625 15.535156 31.585938 14.71875 31.214844 C 14.054688 30.894531 12.707031 30.746094 12.066406 30.921875 Z M 14 32.800781 C 15.132812 33.375 15.546875 34.761719 14.90625 35.894531 C 14.492188 36.613281 13.839844 36.988281 13 36.988281 C 11.734375 36.988281 10.800781 36.027344 10.800781 34.707031 C 10.800781 33.09375 12.546875 32.054688 14 32.800781 Z M 14 32.800781 "/>
<path style=" stroke:none;fill-rule:nonzero;fill:rgb(0%,0%,0%);fill-opacity:1;" d="M 28.839844 31.039062 C 26.066406 32.027344 25.238281 35.507812 27.292969 37.558594 C 28.054688 38.320312 28.691406 38.585938 29.945312 38.640625 C 30.839844 38.679688 31.148438 38.640625 31.707031 38.398438 C 32.546875 38.039062 33.464844 37.078125 33.785156 36.238281 C 34.105469 35.425781 34.039062 33.761719 33.667969 33 C 32.828125 31.28125 30.640625 30.398438 28.839844 31.039062 Z M 30.972656 32.71875 C 31.535156 32.945312 32.078125 33.601562 32.28125 34.265625 C 32.734375 35.773438 31.105469 37.398438 29.601562 36.945312 C 28.933594 36.746094 28.28125 36.199219 28.054688 35.640625 C 27.292969 33.839844 29.171875 31.960938 30.972656 32.71875 Z M 30.972656 32.71875 "/>
</g>
</svg>
